<svg xmlns="http://www.w3.org/2000/svg" viewBox="0 0 721.44 263.76" data-inject-url="https://cdn.shopify.com/s/files/1/0014/1962/t/56/assets/logo-hollow-knight.svg?v=10225524986570767407" class="injectable" aria-label="Hollow Knight">
    <g data-name="Layer 2">
        <g data-name="Layer 1">
            <path class="cls-1" d="M258.72,24c-9.08-1.62-38.17-16.29-41.52-.72-2.41,11.22,18,10.64,13.92,1.44-.76-2.42-3.53-3.4-6.24-2.4l-1.44,1.2v2.16l.24.72,2.64-1.2,1.44,1c-.79,4.45-5.8.57-6.72-1l.72-2.64c7.1-4.72,19.56.85,26.16,2.88,15,4.59,30.67,8.16,50.64,8.16l13.68-.24c8.15-1.36,15.45-1.31,22.56-3.12,3.36-.86,7.59-3.71,11.52-2.64,1,.46,1.19.69,1.44,1.92V31l-1.2.24h-.24c-.38-1.12-.15-.77.48-1.92l-.72-1.2-1.68.48c-.76.51-.78.52-1,1.68a3.65,3.65,0,0,0,1.44,3.84c2.45.5,3.64-.24,5.28-1,2.35-3.78.16-6.52-2.16-8.88-.71-.75,1-4.61.48-7.2-1.06-5.47-8.79-10.5-15.12-6.24-6.8,4.58-1,17.84,7.92,10.8.94-3.35.39-5.85-3.12-6.24l-1.44,1c.3,1.41.72,1.31,1.44,2.16v1l-1.2.72c-1.21-.44-1.84-.57-2.4-1.68l-.24-2.4c3.22-3.45,7.85-1.57,9.84,1.68-.62,10.22-26.47,12-36.72,8.4A20.64,20.64,0,0,1,297.36,19c-4.07-5.68-2-20.12,7.44-14.4,2.27,1,3,3,2.64,6l-1.2.72-2.16.24-.72-1.2a4.85,4.85,0,0,1,2.16-1.92V8.16l-.72-.72a3.29,3.29,0,0,0-3.36.48c-1.21.66-1.59,1.84-1.68,3.6,1.8,4.93,9.22,6.22,11.52,1C314.49,5.14,307.37.12,301.68,0c-3.76,1.41-6.53,1-8.64,3.84-5.64,7.66.89,18.49,5.52,22.08L304.08,29c-15.78.14-47.95.58-42.72-15.84,1.32-.9,3.85-2.74,6.24-1.68,2,.65,3,1.84,3.12,4.32a5.65,5.65,0,0,1-2.16,2.64h-2.4a6,6,0,0,1-1.44-4.56h-1c-3.14,5.61,1.78,11.8,7.68,8.16,4.92-3,3.11-11.35-1.44-13.44-8.92-4.09-18.25,8.21-11.52,14.64ZM368.4,32.64c1.45,1,3,2.22,5.52,1.44,1.39-.66,1.83-1.92,1.92-3.84l-.72-1.68-1.92-.48-1,1.2,1,1.2-.48.72h-1.2a2.72,2.72,0,0,1,1-3.6c5.23-.91,11.21,2.4,16.08,3.6,8.48,2.09,28.5,4,39.36,2.4l19.2-1.92,23.28-5.76c7.58-2.25,16.75-6.94,26.16-4.08A5.79,5.79,0,0,1,498,25a5.26,5.26,0,0,1-2.88,3.12l-3.36-.48c-.7-1.43-.2-1.61,1-2.4l2.4,1.2.48-.24v-2.4l-1.2-1.44c-3.31-.85-5.52,0-6.72,2.64-.35,11,16.19,7.62,14.16-1.68-3.43-15.71-32.37-.75-41.52.72,5.25-9.13-3.05-21.47-12.48-14.64-4.61,3.34-4.08,11.28,1.2,13.44,6,2.45,8.32-4.08,6.48-8.64l-.48-.24h-.72c.18,3.36-.6,4.76-4.08,4.56-.86-.93-1.44-1-1.68-2.64-.83-2.27,1.54-3.85,3.12-4.56,2.74,0,3.73.73,5.52,1.44,3.43,5.63-.76,10-5.28,12-9.29,4.15-23.31,4.65-37,4.32,4.72-3.93,9.44-5.34,12-11.52C431,7.67,425.37.36,416.16,0c-4.65,1.81-10.73,3.78-8.64,11.76,1.68,6.43,9.35,4.26,11.76,0a8,8,0,0,0-1.2-3.84c-1-.4-2.45-1.1-3.84-.48-.46.36-.43.42-.72,1,1,.66,1.55.82,2.16,1.92l-.24.72a5.19,5.19,0,0,1-2.64.48l-.48-.24c-1.82-2.79-.18-4.81,1.44-6.72,7.41-2.09,12.88,3.25,9.6,11.28-2.25,5.52-7.34,9.11-13.44,10.8-10.18,2.82-33.42.72-35-7.68-1-5.28,11.26-7.52,9.6,0l-2.4,1.2c-2-1.59-.53-1.74.24-3.6l-1.2-1.2-2.4.72A3.35,3.35,0,0,0,377.28,18l.48,3.12c3.85,8.74,17.05-4,7.92-10.32-8.69-6-18.22,3.87-14.16,13.2C368.85,26.23,367,28.28,368.4,32.64ZM168.48,29l10.32-.48C187.49,27.09,194,26,200.88,23c6.43-2.74,11.76-6.28,19.68-7.68,14.22-2.52,23.56,7.31,33.84,4.08a6.66,6.66,0,0,0,1.44-3.84,5.49,5.49,0,0,0-3.6-3.6c-2.57-.08-3.51.51-4.32,2.16,0,2.15.54,2.67,2.16,3.12l.48-.24V15.12l1.44-.24.48.72a2.11,2.11,0,0,1-.24,1.92c-6,1-15-4.38-21.12-5.76-10.14-2.27-19.47,1.42-28.8,2.4l-16.8-1.68c-6.09,1.4-6.45,10.59,1.44,10.56v.24c-9.3,1.58-25.37,3.77-30-3.84-5.53-9.09,5.92-14.74,12.72-9.36.37,1.39.77,3.28,0,4.56s-2.06,1.38-3.36.72c-.38-1.9.11-2.54.72-3.84v-.24a5.62,5.62,0,0,0-3.6.48c-1.66,2.36-1.76,4.28-.72,7.2,6.64,4.78,14.36-.54,11.76-9.6-1.37-4.76-5.77-7.46-12.24-7.2-2.53,1.08-5,1.37-7,2.88-2.16,1.64-2.71,4.44-3.36,7.68C149.66,24,159.83,27.48,168.48,29ZM185,20.16c-.65-.64-.88-.6-1.2-1.68v-1c.7-1.5,1.77-1.81,3.12-2.64L202.08,17c-2.75,2.71-9.25,5.08-13.68,5.76,1.88-1.66,2.62-4.5.24-6.24l-2.4-.24H186a3.07,3.07,0,0,0-.72,2.16l.24.24,1.68-.48h.24l.24.48v1.2Zm311.76-5C513.45,18,536.9,36,558,27.36c12.73-5.2,13.48-25.66-4.56-25.2-4.07,1.75-7,2.38-8.64,6.48-3.53,8.9,3.43,14,10.8,11,1.66-2.36,1.76-4.23.72-7.2A5.84,5.84,0,0,0,552.24,11l-.24.72c.61.83,1.36,1.68.72,3.12l-.24.72a4.39,4.39,0,0,1-3.12-.48c-.39-1.38-.73-3.23,0-4.56,3.09-6.87,16.07-2.15,13.44,7.2-2.71,9.62-21.24,7.16-30.72,5.52,1.53-.56,3.23-.27,4.32-1.2,6.33-5.39-2.73-10.68-9.6-9.36-4,.78-10.43,1.86-15.6,1-6.84-1.19-15.12-3.77-23.28-1.92-4.27,1-17.47,7-20.64,5.76l-.72-.24-.24-1.68.72-.48,1-.24h.24v1.44l.48,1c1.25-.23,1.67-.44,2.16-1.44a2.42,2.42,0,0,0-.24-2.4A3.35,3.35,0,0,0,468.72,12c-3.43-.09-4.61,1.22-5.52,3.6a8.27,8.27,0,0,0,1.2,3.6C474.77,23.22,483.27,12.75,496.8,15.12Zm31.68-.24c3-.13,5.32.14,6.24,2.16V19.2l-.24.72h-3.12V18.48l.24-.24,1.92.48.24-1.68a3.32,3.32,0,0,0-3.12-.48c-1.28.6-1.79,1.63-1.92,3.36a10,10,0,0,0,1.92,2.88c-5.28-1-8.85-4-13.44-5.28L517,17Zm-168,16.8c11.94-1.34,13.34-24.63-1.92-24.48-4.43,2.16-7.76,3-9.12,8.16C347.35,23.31,352.94,32.53,360.48,31.68Zm2.16-3.36c-4,1.14-7.29.25-8.64-3.12,2.79,1,8.27,1.08,11,0Zm-9.36-14.64c1.46-2.76,3-2.81,6-4.08,3.33.41,5.21,1.64,6.48,4.08v.24a34,34,0,0,0-12.48,0Zm-1,2.88,5.76-1.44c3.56,0,5.63.75,8.4,1.2a10.92,10.92,0,0,1-.24,6c-2.58,2.71-9.95,1-13.44.48ZM715,49.68h-29c-4-.09-8.31-3.07-11-2.16h-.48c.5,4.49-1.14,12.84-1.92,17.52l2.88.24,3.12-8.4c3.15-1.79,9.93-1.12,14.4-1.44V108c0,9,.94,20.25-1.44,27.12l-3.36.48-.24,2.16,20.4.24.48-.72.24-1.68-5-1.2c-3-5.16-1.92-16.19-1.92-24V55.68c12.5-.3,13.86-.07,16.08,10.32H721l.48-17.28C719.14,48.15,717.18,49.32,715,49.68Zm-207.84.24c-3.17-1.45-13.83-.54-18.48-.48a2.27,2.27,0,0,0-.24,2.16l4.08,1.2c3.66,1.85,2.64,11.15,2.64,16.56l.48,46.56-30-51.36c-3.06-5.16-5.57-13-10.08-16.8l-2.4-.24-1.2,1.2V113c0,7.45.49,16.09-1.2,21.84-7.81,2.47-11.68-5.4-14.64-9.6-5.64-8-10.92-16.74-16.08-25.2l-7-11.76c.79-3.41,3.59-6.18,5.28-8.88,4.34-6.94,13.28-27.18,22.56-27.6l.24-1.92c-3.65-1.67-11.68-.54-16.32-.48-1.07,2.53,2,3.56.72,7l-18,30v.48c-1.57-4-.29-30.58.72-34.08a12.47,12.47,0,0,1,3.84-1l.24-1.68v-.24c-2.53-1.16-16.27-.9-19.68-.24a3.61,3.61,0,0,0-.48,1.92L397,53c2.32,2.25,1.44,16.56,1.44,21.6,0,19.65,1.66,42.29-1.2,60-.84.46-2.26.54-3.36,1l-.72.48.24,1.68h20.16l.24-1.92c-1.53-.72-4.34-.81-5.28-2.16-2.33-3.35-1.28-29.55-1.2-36.48h.24l6.24,11c3.92,6.57,7.43,13.2,11.52,19.44,2.34,3.57,4.84,8.32,9.12,9.84,4.05,1.44,13,.94,17.52.24l13.44.24.48-2.4-4.56-1c-3.56-5-1.2-13.23-2.4-21.12L458.16,72h.24l14.16,24.72c8.51,14.26,16,29.33,25.92,42.24l2.88-.48c1.45-6,.48-14.93.48-21.84l.24-44.16c0-6.61-.54-14.79,1-19.92C505.08,51.94,507.1,52.88,507.12,49.92Zm37,30.48c-6,29.16,8.56,67.6,40.08,58.08A34.57,34.57,0,0,0,594,133.2c2.41-10.81-1.09-26,1.44-36.24a6.81,6.81,0,0,1,3.84-.72l.48-2.16c-3.4-1.55-15.18-.54-20.16-.48a1.94,1.94,0,0,0-.24,1.92c.77,1,4.24,1.72,5.28,2.4,2.22,8.89.78,22.2.72,32.4-6.15,6.89-16.64.66-20.88-3.6-10.23-10.28-15.89-36-10.08-55.92,2-6.84,5.73-14.27,12-16.8,13.36-5.4,24.4,5.24,24.24,17.28a7.2,7.2,0,0,0,3.36.48l.72-20.4c-5.94-2.84-13.71-3.78-22.08-3.6-3.17,1.25-6.54,1.17-9.36,2.4C552,55.09,546.87,66.91,544.08,80.4ZM301.2,139.68h2.4c3.71-5.7,4.35-14.66,6.24-22.08l10.08-43,14.64,64.08.72,1h2.4c3.85-6.12,4.15-16.12,6-24l8.4-40.08c2-8.1,2.69-16.51,6-23l3.6-.48.48-2.4-15.84-.48-1.68.24-.24,2.16,3.6,1c2.65,4.74-.38,13.87-1.44,18.72l-8.16,44.4h-.24L329,74.4C327,66.16,326.39,57,323.28,49.68l-2.88-.24L305,115.2h-.24L297.6,73c-1.27-6-3.29-13.58-2.64-20.16a6.81,6.81,0,0,1,3.84-.72l.48-1L299,49.68l-20.4-.24-.48,1.68c1.64,1.67,4.71,1.28,6,3.36,3.3,5.31,3.5,17.76,5,24.72l11.52,59C300.59,139.19,300.54,139,301.2,139.68Zm-283.92-5C13,128.53,15,102.72,15.12,92.16H43.68c0,13.54,2,31.25-1.2,42.72l-2.88.72c-.8.54-.76.79-.72,2.16l20.4.24a2.27,2.27,0,0,0,.24-2.16l-4.8-1.44c-2.88-4.92-1.92-15.69-1.92-23V73.92c0-7.15-.49-15.31,1-21.12a5.93,5.93,0,0,1,3.6-.72l.48-.72V49.68l-19.92-.24V51.6c.65.65,2.74.86,3.84,1,3.67,5.19,2,24.91,1.92,33.84H15.12c0-10.64-1.53-24.63,1-33.6a20.5,20.5,0,0,1,3.84-1l.24-1.92c-3.36-1.54-15-.54-19.92-.48L0,51.84l4.32,1C7.24,57.25,6,67.8,6,74.88V111.6c0,7.94.4,16.68-1.2,23-.77.67-2.53.86-3.6,1.2L1,137.28v.24c3.26,1.49,15.55.54,20.4.48l.48-.72v-1.2C21.15,135.08,18.72,134.78,17.28,134.64ZM137.52,52.8c2.92,4.45,1.68,15,1.68,22.08V111.6c0,7.94.4,16.68-1.2,23l-3.6,1.2-.24,1.68c3.28,1.49,7.68-.61,11.76,0,6.39,1,16.56,1.71,22.56,0,2.32-3.44,2.53-10.67,2.4-16.32l-2.4-.24c-1.66,1.29-1.32,5.87-2.16,7.92-1.7,4.13-11.68,5.24-15.84,2.16-3.18-2.35-2.4-12.69-2.4-18V69.84c0-5.15-1.11-13.84,1.2-17,.8-1,2.54-.51,3.84-1,.79-.53.71-.6.72-1.92-3.42-1.56-15.22-.54-20.16-.48a4,4,0,0,0-.48,2.4Zm41.28,82.56-.48,2.16c3,1.35,7.31-.22,11,0,7,.42,17.38,2,23.52-.24,2.12-3.55,2.28-10.6,2.16-16.08L212.4,121c-1.48,3.09-1.13,7.57-3.12,10.08-2.48,3.13-13.94,1.55-15.6-1-2.64-4-1.44-14.44-1.44-20.4v-37c0-6.68-.54-14.66,1-19.92,1.88-.87,4.63,0,4.8-2.88-3.42-1.56-15.22-.54-20.16-.48l-.72.72c.72,2.26,2.28,2.16,4.56,2.64,2.92,4.45,1.68,15,1.68,22.08V111.6c0,7.94.4,16.68-1.2,23A6.6,6.6,0,0,1,178.8,135.36Zm337,.24a1.49,1.49,0,0,0,0,2.4l20.16-.24c.53-.35.45-1,.48-1.92l-4.8-1.2c-3.12-4.48-2.16-14.74-2.16-22.08V73.44c0-6.89-.58-15.18,1-20.64a5.93,5.93,0,0,1,3.6-.72l.48-2.16c-3.18-1.46-14.09-.54-18.72-.48l-.48,1v1c1.22,1.6,3.77.91,4.56,3.12,1.67,4.64.48,12.7.48,18.24V112.8c0,6.49,1.38,17-1.2,21.6C518.37,135.54,517.14,135.12,515.76,135.6Zm96.48-82.8c2.59,3.92,1.68,12.57,1.68,19v44.88c0,4.33.59,16-1.2,18.24l-2.88.72c-.79.48-.78.59-1,1.68v.24c2.47,1.13,17.24.89,20.64.24l.48-.48-.24-1.2c-.69-1-3.12-1.3-4.56-1.44-4.28-6.11-2.26-31.92-2.16-42.48H651.6c0,13.54,2,31.25-1.2,42.72l-3.12.72-.72.48.24,1.2c.67.87,18,.87,20.64.48v-1.92l-4.8-1.44c-2.88-4.92-1.92-15.69-1.92-23V73.92c0-7.15-.49-15.31,1-21.12a5.93,5.93,0,0,1,3.6-.72l.48-.72V49.68l-19.68-.24a2.27,2.27,0,0,0-.24,2.16c.65.65,2.74.86,3.84,1,3.67,5.19,2,24.91,1.92,33.84H623c0-10.64-1.53-24.63,1-33.6a7,7,0,0,1,3.6-.72l.48-1.92v-.24c-3.33-1.52-14.82-.54-19.68-.48l-.72.72.24,1.68ZM98.16,139.44c36.19-6.18,40.89-92.17-3.84-91.68-3.46,1.45-6.68,1.63-9.6,3.36C74.1,57.41,69.51,70.57,67,85,62.81,108.35,74.48,143.49,98.16,139.44ZM84.72,57.84c2-2.59,4.78-3.21,7.92-4.8,31-.43,30.84,76.78,7.2,80.88-9.78,1.7-15.67-8.77-18.24-14.88C74.47,102.06,74.11,71.27,84.72,57.84Zm151.68-7.2C225.36,57.15,220.57,70,217.92,85c-4.15,23.39,7.52,58.53,31.2,54.48,35.82-6.12,40.66-92.17-4.08-91.68C242,49,239,49.12,236.4,50.64Zm14.16,83.28c-9.73,1.68-16.16-9.86-18.72-16.08-6.94-16.9-6.59-47.1,3.6-60,2.1-2.66,4.92-3.17,8.16-4.8C274.53,52.61,274.64,129.75,250.56,133.92Zm-105.12,43.2c-4.18-.9-8.95.59-12.24,1.44-13.42,3.48-55.53,10.11-55.92-8.64,1.92-2.3,3.64-3.12,7.2-1.92a5.24,5.24,0,0,1,1.2,3.6l-1.44,1a3.28,3.28,0,0,1-2.4-2.64l-.48-.24c-.78.9-1,1.52-1,3.36a8,8,0,0,0,3.36,2.4,10.09,10.09,0,0,0,3.6-1.2c5.23-8.17-7.43-13.56-12.48-7.68-6.16,7.17,6,16.8,11.52,17.76-3.52,1.48-11.6.31-15.12-.24-15.11-2.36-28.79-2.23-32.16-16.08-3.71-15.25,19.91-15.06,15.6-1.68a6.57,6.57,0,0,1-3.36,1.2c-1.64-1.5-2.51-2.39-2.4-5.76h-1.2c-8.55,4.64,6.26,17.35,12.48,7.92,5.15-7.81-2.93-16.82-8.16-18.72l-8.64-.48c-2.83,1.46-5.86,2.14-7.68,4.56-8,10.64.8,24.38,8.4,28.32,15.73,8.15,54.24,6.47,73.68,2.4,5.64-1.18,25-5.87,29-4.08v2.16l-1,1-1-.48V182.4c-1.49.11-1.74.34-2.4,1.2a6.71,6.71,0,0,0,.48,3.84C151.36,193.21,155.8,179.36,145.44,177.12Zm525.12-26.64c-2.21.86-4.19,1-6,2.16-4.11,2.66-9,12.35-4.08,18,5.47,6.22,17.45.29,12.24-8.88l-1.44-.24c-.68,2.79-.28,4.67-2.64,5.76L666,167c-6.48-9.28,11.58-15.87,14.64-5.76,6.51,21.5-28,23.69-47,23.28v-.24c5.49-1,16.69-9.49,12-17-3.87-6.23-16.73-3.42-13.44,6.48l3.12,1.68c2.11-.09,3.41-.87,4.08-2.4a4.13,4.13,0,0,0-.24-3.12l-.72-.24-1.2,2.4-1.44.48a2.54,2.54,0,0,1-1.2-1c-.5-1.21.1-2.16.48-3.12,2.54-1.66,6.33-1.62,7.44,1.44,2.36,6.48-6.47,9.79-10.8,11-17.09,4.95-37.78-1.23-52.32-3.84-6.31-1.13-12.69,2.15-11,8.16.75,1.92,2,2.77,3.84,3.6a11.89,11.89,0,0,0,4.08-.72c.84-1.16,1.75-2.42,1.2-4.32L576,182.4h-1c.19,1.5.19,1.71-1,2.4l-1-.48v-2.16l.24-.72c7.16-1.66,18,2.58,25.2,3.84,21.12,3.68,52.38,6.58,72.72,0,7.28-2.35,13.13-7.46,15.36-14.88C690.56,157.31,681.9,150.3,670.56,150.48ZM335.28,172.56h.48l.24-.48c-12.17,0-19.7-5.13-23.76-13.2,10.55-3.27,20.48-3.29,29.76,1.68h.72c-.74-5.51-14.37-7.69-21.84-7.44-4.8,2-8.64,1.6-12.72,4.08C309.67,163.78,324.91,178.11,335.28,172.56Zm57.84-19.44-7.68,1.44-7,3.36-1.2,1.44v1.2l8.16-3.12c7.71-2.3,16.14-.5,22.32,1.44-4,8-11.71,13.29-23.76,13.2,2,1.9,7.85,1.31,10.56.48,7.62-2.33,14.58-7.75,17-15.12C408.43,153.66,400.14,152.92,393.12,153.12ZM383,165.84l1.68.48,1.2-1.2.24-2.16-1.44-1.44-2.64-.24c-2.26,1.93-2.75,3.59-1.44,6.72,8.54,5.7,11.25-6.6,17.28-7.68l1,.24.72,1.68-.48.72h-1.2l-.24-.48.48-1-.48-.72-1.2.24-1,1.68a3,3,0,0,0,.48,1.92c2.05,3.33,6.74,0,7-2.88.39-1.16-.43-2.37-1-3.36a9.36,9.36,0,0,0-4.8-1.2c-4,2.43-8.07,10.78-14.16,9.36h-.48c-.48-.75-.88-1.09-.48-2.16.44-.74.34-.63,1.2-1,.52.49.47.32.72,1.2l-1,.48Zm-34.56,54.24c-7.76-11.75-26.66-15.32-45.84-14.88V205c1.86-2.33,5.58-5.57,4.32-10.08v-.24a25.59,25.59,0,0,0,11-2.16l.48-.72-.24-.48c-8.4,1.36-15.59-.74-21.6-3.6-1.86-8.41-6.33-16.92-13.2-20.16l-.24-.48c7.26,1.61,21.35,5.33,24.48-2.64,3.53-9-10.49-14.58-13.2-6.24a4.26,4.26,0,0,0,2.88,4.32,4.57,4.57,0,0,0,3.84-.48l.48-1v-1c-1,.25-1.61.66-2.64.24l-1-.72c.23-1.47.59-1.62,1.68-2.16a6.2,6.2,0,0,1,4.32,1.68c.38,1.3.73,2.87,0,4.08-2.15,4.44-11.1,3.09-15.84,1.68-15.85-4.72-38.88-9.24-59.52-5.76-22.9,3.86-42.28,10-64.08,14.16-10.94,2.07-24.52,0-26.64-7.92-3.46-12.86,20.46-10.23,16.32-.72a2.07,2.07,0,0,1-1.44,1.2c-.86.32-1.3,0-2.16-.24a6.28,6.28,0,0,1-1.44-4.56c-1.16.35-1.23.71-1.92,1.44-2.05,8.59,9.21,9.51,11.28,2.64,2.78-9.23-6-13.5-14.16-13.2-3,1.27-6.11,1.43-8.16,3.6a11.72,11.72,0,0,0-2.64,8.88c2.06,10.76,10.06,13.28,23,13v.24c-4.25,5.44-3.74,11.87,2.88,14.64,1.31.55,4,1.35,5.76.72,8-2.92,3.4-16.6-3.36-11.76a2.72,2.72,0,0,0-1.44,1.68l-.24,1.68.48.48c1.72-.54,2-1,4.08-1a4.15,4.15,0,0,1,1,3.12l-1.92,1.68c-2.35,1-4.37-.85-5.76-1.68-2.13-8.06,6.77-9.32,12.72-11,11.47-3.31,27.33-7.9,41.76-3.6,5.51,1.64,15,7.29,10.56,15.84-2.84,5.53-14.26,2.07-11-4.08l1.44-1.44a2,2,0,0,1,2.88,1c.6,1.62-.5,2.06-1,3.36v.24c2,.55,3-.62,3.84-1.92,1.62-7.84-9.35-8.11-11-2.16-2.2,7.75,6.9,14.49,14.88,11.28,5.35-2.15,7.12-11.54,3.6-17-4.35-6.8-11.71-7.19-19.44-10.8l-.48-.24c15.54-2,35.87-8.66,47.28,1.68,2,1.77,6.2,6.64,4.8,10.56l-.24.72c-8.31,1.84-25.51,4.78-28.08-3.6-2.41-7.85,8.5-10.12,11-4.8v1.68l-1.44,1.2-1.68.24-1.44-1.68.72-2.16-.48-.48a4.52,4.52,0,0,0-2.88,2.88c-.4,1.16.43,2.6,1,3.6,4.12,1.7,10.05,1.32,11-3.84,1.18-6.14-6-9.8-12-8.16-13.28,3.62-9.18,19.59,4.8,19.68v.24c-9,2.85-17.78,18.34-3.84,22.32,6.7,1.91,12.53-1.64,13.68-6.24,1.42-5.68-5.74-11.79-11-8.64-2,.89-2.49,2.54-3.12,4.8,0,3.21,3.12,6.1,6,4.56l1.92-1.92v-1a6.07,6.07,0,0,1-3.12.24c-.55-1.14-.56-1.6.72-2.16h2.4l2.16,2.16c-.24,4.47-5,6.77-9.36,4.56-4.91-2.49-2.68-8.71-.24-11.76,9.84-12.3,40.07-7.28,54.24-2.4,5,1.73,11.19,2.21,13,7.2,5.35,15-33.71,13-26.4.24,1.43-3.16,6.29-3.1,8.88-1.2.37,1.27.71,2.66,0,3.84-.49.84-.47.81-1.68,1a3.07,3.07,0,0,1-.72-3.12v-.24a3.22,3.22,0,0,0-2.16,1,4.83,4.83,0,0,0,1,5,8.83,8.83,0,0,0,4.56.24c4.3-1.68,4.26-7.85,1.68-11.28-4.81-6.41-15.57-2.09-17,4.32-.7,3.08.73,5.86,1.68,7.44,4.19,7,14.38,7.4,24.48,5.76l11.28-.48c2.43-.42,7-.62,9.12.24a8.79,8.79,0,0,0-7.2,4.56c.2,3.21,1.74,4,3.84,5.28l3.12-.72a5.33,5.33,0,0,0,1-3.6l-1.44-1.44h-1.92l-.72.24v.72l1.68,1.2v.48l-.48.24L313,215l-.24-1.68c3.88-4,18.84-3.61,22.8.24H336c-4.44,1.55-10.17,2.6-7.2,9.6,2.11,5,9.73,5.39,12,.24l-.72-3.6-2.64-1.44c-2.65-.05-3.56.84-4.32,2.64l1,1,1.92-1.44h1.2a3.84,3.84,0,0,1,.24,2.64c-.43.76-.67.81-1.44,1.2l-2.88-.24L331.44,221l.72-3.12c8.85-5.49,18.21,6.68,14.64,15.12a2.53,2.53,0,0,1-2.88,0c-.8-.54-.76-.79-.72-2.16,1.19-.32,1.36-.09,2.16.48.47-.63.42-.6.24-1.44l-1.2-1.2c-1.7-.78-3.13.26-4.08,1-1,3.54.19,6.19,3.12,7.2C353.18,241,351.42,224.53,348.48,220.08Zm-58.56-35-7-2.16a66.27,66.27,0,0,0-18.72-3.36c-.06-7.44-6.05-14.44-11.52-16.56l-.24-.48C268.81,162.32,291.3,170,289.92,185Zm273.36-7.44,6.48-.24c5.72-1,11-2,13.92-5.76,6.79-8.64.66-19.85-10.56-19.68l-5,.72c-4.91,1.79-9.76,9.51-5.28,15.36,5.62,7.33,14.9-5.1,7.92-7a11.08,11.08,0,0,1-.72,3.84,4.39,4.39,0,0,1-2.88,1.2l-1.44-1c-1.43-6.65,6-10.67,12-8.16,5.32,2.22,5.48,9.76,1.2,13.2-7.19,5.79-24.65,3.25-33.6,1L504.48,161c-6.71-1.49-13-.89-20.4-2.16a55.26,55.26,0,0,0-16.8-.24c-13.23,2.26-25.14,3.3-36.48,6.48-5.58,1.56-11.17,1.34-14.88-1.44a8.13,8.13,0,0,1,0-4.56c1.17-.89,3.17-2.48,5-1.2l1,.72-.24,1-.24.72a6.27,6.27,0,0,1-3.12-.24c.11,1,.08.94.48,1.44.69,1.21,1.85,1.32,3.84,1.2a9.62,9.62,0,0,0,2.88-3.36c-.13-9.46-15.86-5.36-13.44,4.32,2.23,8.92,17.45,5,24.72,3.36-3.58,3.85-7.72,6.87-10.56,11.52-1.54,2.52-1.5,5.77-2.88,8.64-2.19,3.63-15.7,5.53-21.36,4.08l-.48.48c2.14,2.6,6.63,3.05,11.52,2.88-.6,3.28,1,5.57,1.92,7.92l2.4,2.4v.24c-17.13-.19-35.24,2.2-43.44,11.76-3.86,4.51-10.42,20.4,2.64,20.16,2.65-2,7.17-9.06-1-8.64l-1.2,1.2-.24,1.44.48.24a2.47,2.47,0,0,1,1.92-.72l.24,1.92c-.78.83-1.39,1-3.12,1-5.55-8.51,4.64-19.08,13.68-16.08l1.2,2.16c-.08,2.08-.64,2.67-1.2,4.08a5,5,0,0,1-4.8,0,3.35,3.35,0,0,1,.24-2.64v-.48c1.91.12,2.06.62,3.12,1.44l1-1a4.66,4.66,0,0,0-2.64-2.64l-3.6.72-1.44,2.64c-.16,7,8.48,6.48,11.28,2.64,3.87-5.3-.52-10.76-6.48-10.56v-.24c3.9-1.58,20.05-6.33,23-.24v1.2l-1.2,1.2h-1.2l-.24-.24c.63-1.45,1.68-.94,1.44-2.64h-2.16l-1.44,1.44c-1.33,2.68,1.32,4.26,3.6,4.32,6.79-2.55,3.41-9.4-3.12-9.84,2.14-.86,6.67-.64,9.12-.24,9.72,1.59,27.58,2.65,33.36-1.92,6.45-5.1,4.72-20.83-7.2-18.24-12.35,2.69-7.53,20,1.44,13.2.36-1.25.69-2.45,0-3.6l-1-1.44h-1.2v2.64l-1.44.72-1-.48c-2.05-7,5.53-6.27,8.88-3.6,4.3,16-30.94,13.27-26.4.24,1.87-5.37,9.83-6.22,15.36-7.92,18.29-5.62,44.45-8.38,54.48,6.72,2.73,11.35-14,10.78-12,3.36l1.68-1.92,2.64-.24,1.2,1v1a3.22,3.22,0,0,1-3.36.24h-.24V199c.66,1.36,1.05,2.15,2.88,2.4,2.25.75,4.3-1.68,5-3.36-.07-3.39-1.2-4.4-2.64-6.24-5.77-1.6-13.21,1.65-11.52,8.64,1.12,4.63,7,8.12,13.68,6.24,7.35-2.07,9.07-10.72,4.32-16.8l-7.68-5.52h-.48c5.59-2.19,10.29-1.75,12.48-7.2,3-7.53-4.92-15.07-13-13-3.46.91-8.22,4.29-6.48,9.36,1.09,3.17,7.37,5.84,10.32,2.88,1.08-.61,1.5-1.89,1.68-3.36a5.69,5.69,0,0,0-3.12-3.12l-.48.24.72,2.4L481.44,174l-1.68.24-1.2-1.44a3.86,3.86,0,0,1,.24-2.88c4.67-3.5,14.32.08,9.84,7.44-3.4,5.57-13.23,4-19.68,2.88l-7.2-.72-.72-.24c-.55-3.19.92-5.64,2.16-7.68,6.59-10.86,19.43-9.95,34.32-7.44,5.4.91,11.35.43,15.6,2.64-8.37,1.74-16.93,5.12-20.4,11.76-3,5.71-.86,14,4.08,16.08,7.95,3.29,17.1-3.59,14.88-11.28-1.7-5.88-13.31-5.42-11,1.92a3.48,3.48,0,0,0,2.16,2.16l1.44.24.24-.24c-.47-1.68-2.32-3.39,0-4.56l1.92-.24c5.55,5.13-4.32,12.43-8.64,7.2-6.64-8,3.73-15.54,9.6-17.28,15.5-4.61,32.39.63,44.64,4.32,3.71,1.11,13.11,4,9.84,9.84-.92,1.71-3,2.51-5.76,2.4l-1.68-1.92-.24-1.92.24-.48c1.87-1.18,2.72-.64,4.56.24.65-.63.71-.8.72-2.16l-1.2-1.68c-9.26-3-10.65,9.22-3.84,11.76,5.16,1.93,10.94-3.16,11.76-6.72s-1.24-5.76-2.16-7.68Zm-107.52,1.92c-9.42.27-18.12,3-25.44,5.76-1.64-4.93,2.71-8.89,5-11.52,6.83-7.72,17.3-11.59,32.16-11.28C462.81,167.22,455.8,170.15,455.76,179.52Zm-157.92-3.84c6.78,10,20.74,18,36.48,13.2l.72-1-10.56.24c-10.08-1.58-17.37-5.15-22.32-11.76,3.52-4,10.9-3.1,15.12-6.48l-.24-.48-5.28-.24C307.27,171.1,299.32,171,297.84,175.68Zm124.08.24v-1c-4.31-3.61-10.42-6-18.48-5.76l-.48.24-.24.48c.69.6,13.34,5.37,14.64,5.76l.48.72c-6.45,8.84-17.37,12.54-32.64,11.28l-.24.24v.24c10.25,7.13,25.05-1.2,31.44-6.24Zm-90-.24a7.21,7.21,0,0,0-2.4,1.92v1.68l1.92,1.68,1-.24h.48l-.48-2.16.24-.24h.72l.48,1v1.44l-.24.72c-10.25,2.22-11.66-8.46-21.84-8.64-2.24,1.21-3.22,1.74-4.32,4.08,0,4.06,2.71,7.2,7.2,5.76a2.71,2.71,0,0,0,1.92-2.4l-.24-1.92a5.76,5.76,0,0,0-3.12-1.2H313l-.48,1c.56.69.86.67,1.2,1.68V180l-1,.48-1-1c-.33-1.61-.09-2.51,1-3.36,6.33-1,18.23,16.71,24,4.8C336.87,177.11,335.32,176,331.92,175.68ZM387.6,181l1.68-.48,1-1.44v-1.68a4.55,4.55,0,0,0-2.4-1.44l-3.12.48a5.41,5.41,0,0,0-1.2,5c4.7,11.14,18.19-6.58,23.52-5.28,1.81.87,2.1,4-.48,4.32-.65-1.58.15-1.36.72-2.88v-.24l-.48-.24-2.64.72-1,2.4a7.21,7.21,0,0,0,1.92,2.4c4.46,1,6.28-1.19,7.2-4.56-.08-3.52-2.49-5.38-6.24-5.28l-4.56,1.44c-3.29,1.95-8.75,10.33-14.88,7.2l-.72-.24-.24-1.92.24-.48,1.44-.48a2.51,2.51,0,0,1-.24,2.16Zm-76.32,18.72-.24.72c5.33,6.63,19.08,5.43,26.4,2.4l1.2-1.44v-.24c-4.1.3-7.94,2.7-13.44,1.68l-9.6-3.12c1.41-4.32,8-4,9.6-7.68h-2.4C318.87,194.37,313.32,195.49,311.28,199.68Zm70.56,1.2-.48.24c4.21,9,20.69,2.44,26.64.24l.72-1.44c-2.07-3.68-8.33-7.95-13.92-7.92,1,2.55,7.65,4.25,9.6,7.44v.24c-2.41.55-4.65,1.24-6.87,1.81.49-.2.94-.43,1.35-.61a5.74,5.74,0,0,0,1-3.84c-6.15-6.41-10.06.17-15.84-.24-.43-1.41-.17-1.85,1-2.4l.48,1.92c2.26-.55,1.82-2.92,0-3.6l-1.44-.24-1.2.72a3.35,3.35,0,0,0-1.44,1.92l.48,2.88c6,3.54,12.71-6,15.6.24l-.48,1-1.44.24,1-1.44-.72-.72-1.68-.24c-1.18,1.47-1.8,3.6.48,4.56a3.07,3.07,0,0,0,1.48.25A21.51,21.51,0,0,1,381.84,200.88Zm-58.32-4.32c4.52-1.08,7.41,1.16,10.32,3.12,2.17-.62,3.39-.84,4.56-2.4a5.37,5.37,0,0,0-.72-4.08l-3.12-.72c-1.3.85-2.7,2.34-1,3.6h.72c.49-.49.41-.42.48-1.44h1v2.16c-4.62.52-11.09-5.89-15.6,0a6.37,6.37,0,0,0,.48,3.6l2.4,1.44,3.12-.48,1-1.68-.24-1.68a3.56,3.56,0,0,0-2.88-1l-.48.24c.08,1.11.15.85,1,1.68l-.48.48L322.56,198v-.24ZM359,151l-6,1c-6.91,2.59-8.92,7.25-12.48,13.2v.48c-1-2.2-1-3.24-3.12-4.32l-2.16.24L333.84,163c-.8,1.73.28,2.61,1.2,3.36l1.44-.24.48-.24c-.34-1-.23-.72-1-1.2v-.72l.72-.48,1,.48.24,1.92-1,.72c-7.55,1.05-12.47-14.16-18.72-8.16-1.09.61-1.57,1.79-1.68,3.36a28.5,28.5,0,0,0,2.4,3.6l3.84.48c1.07-.88,2.4-2.12,1.2-3.84a2.24,2.24,0,0,0-1.92-1.2v1.68c-.47.38-.33.33-1.2.48a2.31,2.31,0,0,1-.24-1.92c6-2.87,9.81,14.55,19.2,6.24v-.48h.24c-5.54,21.08,2.3,57.6,26.64,47.52C387.33,205.79,389.6,151.36,359,151Zm-1.2,3.36c12.13-.2,15.88,5.37,19.2,13.92v.24c-5.11-.63-10.56-1.72-16.32-2.4-5.41-.64-12.71,1.52-17.76,2.4C345.23,159.54,349.63,157.51,357.84,154.32ZM342,171.84c2.59-3.47,33.29-3.41,36,0,1.63,2,1.28,8.44,1.2,11.76-12.24-.43-26.16-.59-38.4,0C340.72,180.17,340.38,174,342,171.84Zm-1,15.84v-1.44l8.4-1c10.12,0,20.7.14,29.52,1-.21,4.9-1.7,9-2.88,12.72-8.23,1.83-23.69,3.84-31.68,0C341.8,197.09,341.92,191.23,341,187.68Zm5,15.12a251,251,0,0,0,27.84,0C366.82,214.18,353.16,214.27,346.08,202.8Zm13.44,13.92c-3.63,1.57-5.89,2.44-7,6.48-1.7,6.41,1.79,16.52,9.36,14.16C370,234.86,370,216.89,359.52,216.72Zm-3.84,5.76c.88-1.74,1.76-2.12,3.36-3.12,3.31,0,4.51,1.35,5.52,3.6l-8.88-.24Zm5.52,12.24h-2.64a6.53,6.53,0,0,1-3.36-3.6,16.28,16.28,0,0,0,9.6,0A6.46,6.46,0,0,1,361.2,234.72Zm4.08-5.76a23.39,23.39,0,0,1-10.56,0v-3.6a71.58,71.58,0,0,1,10.56,0ZM365,250.32c-2.09,1.84-4.22,3.09-4.8,6.48l-.48.24a8,8,0,0,0-4.8-6.48l2.88-3.36c2.28-5.47-2.81-10.46-7.2-11.28-2.55,1.17-4.55,1.51-4.56,5.28l.48.24c1.44-1.33,2.34-2.22,5.28-2.16,1.43,1.48,4.16,4.36,2.64,7.2l-.24.72-2.4.24h-.24l-.72-1,.24-1.44.72-.24a1.8,1.8,0,0,1,1,1.2c1-.37.77-.32,1.2-1.2a2.89,2.89,0,0,0-2.88-2.16,4.51,4.51,0,0,0-2.88,2.64c.47,5.65,4.94,5.5,7.68,8.64,1.89,2.17,2.74,6.58,3.6,9.6l.48.24,3.6-9.12c2.19-3.38,6.22-4,8.16-8.16-.09-2.53-1.07-2.86-2.64-3.84-2,.11-2.51.72-3.12,2.16.45.87.17.82,1.2,1.2.35-.81.31-.74,1-1.2l1,.72v1.2a2.76,2.76,0,0,1-2.88.48l-.72-.24a6.73,6.73,0,0,1,2.88-7.68c2.81,0,3.63.87,5,2.16a2,2,0,0,0,.24-2.16C370.82,230.84,355.76,241.05,365,250.32Z"/>
        </g>
    </g>
</svg>